<?xml version="1.0" encoding="utf-8"?>
<!-- Generator: Adobe Illustrator 16.0.4, SVG Export Plug-In . SVG Version: 6.00 Build 0)  -->
<!DOCTYPE svg PUBLIC "-//W3C//DTD SVG 1.1//EN" "http://www.w3.org/Graphics/SVG/1.1/DTD/svg11.dtd">
<svg version="1.1" id="Layer_1" xmlns="http://www.w3.org/2000/svg" xmlns:xlink="http://www.w3.org/1999/xlink" x="0px" y="0px"
	 width="2000px" height="2000px" viewBox="0 0 2000 2000" enable-background="new 0 0 2000 2000" xml:space="preserve">
<g>
	<path fill="#545352" d="M994.684,1472.439c0.626,0.082,1.192,0.236,1.693,0.47c0.499,0.24,0.985,0.581,1.456,1.027
		c0.473,0.446,0.997,1.036,1.575,1.772l59.789,76.176c-0.21-1.838-0.35-3.637-0.427-5.398c-0.086-1.756-0.124-3.396-0.124-4.925
		v-69.242h18.67v113.911h-10.948c-1.68,0-3.072-0.264-4.178-0.791c-1.101-0.52-2.179-1.465-3.227-2.83l-59.556-75.867
		c0.159,1.684,0.277,3.352,0.356,5.004c0.078,1.659,0.117,3.164,0.117,4.533v69.951h-18.67v-113.911h11.107
		C993.264,1472.319,994.051,1472.358,994.684,1472.439z"/>
	<path fill="#545352" d="M1150.971,1541.957v44.273h-21.191v-44.273l-41.512-69.638h18.67c1.838,0,3.292,0.45,4.366,1.342
		c1.078,0.892,1.982,2.024,2.723,3.39l20.873,38.045c1.21,2.258,2.257,4.398,3.149,6.423c0.896,2.021,1.706,4.003,2.443,5.942
		c0.682-1.994,1.457-4.003,2.326-6.023c0.865-2.021,1.9-4.139,3.11-6.342l20.718-38.045c0.574-1.156,1.443-2.234,2.599-3.234
		c1.155-0.992,2.626-1.497,4.413-1.497h18.748L1150.971,1541.957z"/>
	<path fill="#545352" d="M1249.284,1569.136c4.095,0,7.757-0.683,10.983-2.048c3.234-1.365,5.965-3.281,8.198-5.748
		c2.226-2.474,3.933-5.46,5.119-8.981c1.179-3.521,1.769-7.458,1.769-11.817v-68.222h21.19v68.222
		c0,6.775-1.085,13.035-3.265,18.787c-2.18,5.751-5.322,10.715-9.417,14.889c-4.095,4.172-9.06,7.43-14.889,9.765
		c-5.829,2.343-12.391,3.511-19.689,3.511c-7.303,0-13.868-1.168-19.694-3.511c-5.832-2.335-10.781-5.593-14.854-9.765
		c-4.068-4.174-7.189-9.138-9.369-14.889c-2.18-5.752-3.273-12.012-3.273-18.787v-68.222h21.19v68.141
		c0,4.359,0.589,8.3,1.772,11.821c1.183,3.514,2.873,6.523,5.084,9.017c2.203,2.493,4.922,4.425,8.152,5.79
		C1241.52,1568.453,1245.181,1569.136,1249.284,1569.136z"/>
	<path fill="#545352" d="M1347.431,1586.23v-80.822h11.895c2.521,0,4.181,1.18,4.964,3.545l1.265,5.988
		c1.411-1.574,2.897-3.025,4.448-4.336c1.547-1.311,3.199-2.443,4.964-3.39c1.757-0.942,3.649-1.69,5.67-2.241
		s4.239-0.826,6.659-0.826c5.088,0,9.277,1.377,12.565,4.13c3.281,2.761,5.731,6.423,7.36,10.991
		c1.262-2.676,2.84-4.973,4.732-6.888c1.885-1.916,3.963-3.483,6.221-4.692c2.257-1.203,4.661-2.095,7.205-2.676
		c2.545-0.574,5.104-0.865,7.688-0.865c4.459,0,8.423,0.678,11.891,2.043c3.467,1.365,6.383,3.367,8.741,5.988
		c2.366,2.63,4.165,5.829,5.398,9.61c1.233,3.785,1.85,8.113,1.85,13v51.44h-19.457v-51.44c0-5.143-1.132-9.021-3.39-11.619
		c-2.257-2.599-5.564-3.901-9.92-3.901c-2.002,0-3.848,0.342-5.555,1.023c-1.705,0.683-3.207,1.672-4.49,2.955
		c-1.287,1.288-2.296,2.901-3.033,4.848c-0.736,1.943-1.102,4.174-1.102,6.694v51.44h-19.538v-51.44
		c0-5.406-1.094-9.347-3.27-11.817c-2.179-2.471-5.395-3.703-9.653-3.703c-2.784,0-5.391,0.697-7.834,2.086
		c-2.447,1.396-4.715,3.301-6.817,5.717v59.158H1347.431z"/>
	<path fill="#545352" d="M1497.895,1505.408v51.363c0,4.934,1.141,8.758,3.42,11.457c2.289,2.707,5.717,4.057,10.285,4.057
		c3.359,0,6.508-0.745,9.451-2.242c2.94-1.496,5.721-3.561,8.351-6.189v-58.445h19.461v80.822h-11.898
		c-2.521,0-4.173-1.182-4.964-3.544l-1.338-6.462c-1.68,1.684-3.417,3.22-5.201,4.607c-1.784,1.393-3.688,2.576-5.709,3.545
		c-2.023,0.974-4.203,1.734-6.539,2.289c-2.334,0.551-4.848,0.826-7.523,0.826c-4.413,0-8.311-0.749-11.696-2.246
		c-3.39-1.497-6.236-3.615-8.548-6.345c-2.312-2.73-4.057-5.973-5.239-9.728c-1.183-3.754-1.772-7.888-1.772-12.402v-51.363
		H1497.895z"/>
	<path fill="#545352" d="M1617.631,1521.162c-0.527,0.838-1.078,1.435-1.652,1.772c-0.581,0.341-1.318,0.512-2.21,0.512
		c-0.942,0-1.954-0.26-3.032-0.787c-1.078-0.528-2.32-1.113-3.739-1.776c-1.419-0.652-3.032-1.245-4.848-1.769
		c-1.812-0.523-3.948-0.783-6.423-0.783c-3.832,0-6.849,0.807-9.059,2.436c-2.203,1.628-3.305,3.754-3.305,6.384
		c0,1.733,0.562,3.188,1.691,4.367c1.132,1.186,2.629,2.226,4.49,3.117c1.861,0.893,3.979,1.691,6.345,2.4
		c2.362,0.71,4.778,1.486,7.245,2.324c2.467,0.841,4.887,1.799,7.248,2.877c2.361,1.074,4.479,2.439,6.341,4.096
		c1.862,1.652,3.358,3.638,4.491,5.949c1.125,2.311,1.691,5.088,1.691,8.346c0,3.886-0.707,7.473-2.126,10.754
		c-1.419,3.285-3.49,6.116-6.225,8.506c-2.733,2.389-6.101,4.258-10.118,5.592c-4.018,1.342-8.629,2.014-13.83,2.014
		c-2.784,0-5.499-0.253-8.152-0.749c-2.652-0.497-5.196-1.194-7.64-2.087c-2.443-0.892-4.7-1.947-6.775-3.156
		c-2.075-1.203-3.897-2.514-5.472-3.934l4.486-7.406c0.578-0.893,1.261-1.575,2.052-2.049c0.784-0.473,1.784-0.705,2.994-0.705
		c1.206,0,2.351,0.338,3.421,1.023c1.078,0.683,2.326,1.412,3.742,2.203c1.424,0.787,3.091,1.52,5.007,2.203
		c1.916,0.682,4.344,1.027,7.283,1.027c2.312,0,4.298-0.275,5.949-0.826c1.652-0.551,3.018-1.275,4.096-2.172
		c1.078-0.888,1.861-1.928,2.366-3.11c0.496-1.179,0.744-2.4,0.744-3.661c0-1.893-0.566-3.436-1.691-4.646
		c-1.132-1.209-2.629-2.26-4.49-3.148c-1.861-0.893-3.995-1.699-6.384-2.404c-2.39-0.706-4.833-1.486-7.322-2.327
		c-2.497-0.838-4.94-1.823-7.33-2.955c-2.389-1.125-4.519-2.56-6.376-4.29c-1.869-1.729-3.365-3.862-4.49-6.383
		c-1.133-2.521-1.695-5.562-1.695-9.137c0-3.305,0.656-6.462,1.967-9.455c1.314-2.99,3.242-5.602,5.793-7.835
		c2.545-2.233,5.725-4.018,9.533-5.359c3.801-1.338,8.203-2.005,13.193-2.005c5.562,0,10.635,0.915,15.203,2.758
		c4.568,1.838,8.377,4.25,11.426,7.244L1617.631,1521.162z"/>
	<path fill="#545352" d="M1662.138,1481.852c0,1.684-0.345,3.258-1.024,4.729c-0.682,1.47-1.59,2.758-2.722,3.858
		c-1.125,1.102-2.451,1.985-3.979,2.638c-1.52,0.658-3.148,0.984-4.879,0.984c-1.683,0-3.273-0.326-4.77-0.984
		c-1.494-0.652-2.797-1.536-3.895-2.638c-1.105-1.101-1.985-2.389-2.645-3.858c-0.655-1.471-0.978-3.045-0.978-4.729
		c0-1.729,0.322-3.357,0.978-4.886c0.659-1.521,1.539-2.831,2.645-3.933c1.098-1.105,2.4-1.986,3.895-2.645
		c1.496-0.652,3.087-0.982,4.77-0.982c1.73,0,3.359,0.33,4.879,0.982c1.528,0.658,2.854,1.539,3.979,2.645
		c1.132,1.102,2.04,2.412,2.722,3.933C1661.793,1478.494,1662.138,1480.123,1662.138,1481.852z M1659.221,1505.408v80.822h-19.457
		v-80.822H1659.221z"/>
	<path fill="#545352" d="M1737.996,1522.504c-0.578,0.732-1.141,1.311-1.691,1.729c-0.555,0.423-1.357,0.628-2.404,0.628
		c-1,0-1.97-0.299-2.916-0.903c-0.942-0.601-2.071-1.284-3.39-2.044c-1.312-0.764-2.87-1.45-4.685-2.055
		c-1.812-0.598-4.057-0.904-6.732-0.904c-3.418,0-6.407,0.617-8.982,1.854c-2.575,1.23-4.716,3.006-6.422,5.317
		c-1.707,2.312-2.979,5.108-3.816,8.385c-0.842,3.289-1.265,7.005-1.265,11.149c0,4.31,0.458,8.141,1.38,11.5
		c0.916,3.365,2.242,6.189,3.977,8.47c1.732,2.284,3.835,4.018,6.301,5.196c2.471,1.188,5.252,1.777,8.354,1.777
		c3.095,0,5.604-0.381,7.521-1.145c1.919-0.76,3.532-1.602,4.844-2.521c1.314-0.918,2.459-1.756,3.428-2.517
		c0.974-0.761,2.063-1.144,3.27-1.144c1.578,0,2.758,0.604,3.549,1.811l5.588,7.09c-2.156,2.521-4.486,4.639-7.008,6.345
		c-2.521,1.702-5.135,3.071-7.842,4.095c-2.699,1.024-5.503,1.746-8.389,2.164c-2.889,0.42-5.751,0.629-8.582,0.629
		c-4.996,0-9.691-0.932-14.102-2.793c-4.414-1.869-8.261-4.584-11.541-8.151c-3.285-3.575-5.884-7.946-7.8-13.116
		c-1.919-5.174-2.874-11.068-2.874-17.689c0-5.934,0.854-11.436,2.561-16.502c1.702-5.068,4.211-9.455,7.523-13.154
		c3.305-3.703,7.399-6.608,12.286-8.703c4.886-2.102,10.502-3.152,16.858-3.152c6.039,0,11.328,0.973,15.874,2.912
		c4.541,1.943,8.625,4.728,12.247,8.354L1737.996,1522.504z"/>
	<path fill="#545352" d="M1013.507,1624.92c5.1,0,9.784,0.814,14.066,2.439c4.277,1.633,7.966,4.006,11.064,7.133
		c3.099,3.125,5.519,6.957,7.248,11.498c1.733,4.542,2.599,9.73,2.599,15.561c0,1.469-0.062,2.691-0.193,3.66
		c-0.137,0.974-0.373,1.734-0.71,2.285c-0.346,0.555-0.807,0.945-1.377,1.179c-0.582,0.24-1.319,0.356-2.211,0.356h-49.942
		c0.578,8.3,2.808,14.393,6.698,18.278c3.888,3.882,9.03,5.829,15.438,5.829c3.149,0,5.872-0.369,8.151-1.102
		c2.289-0.736,4.282-1.551,5.988-2.443c1.707-0.893,3.203-1.707,4.491-2.443s2.532-1.102,3.746-1.102
		c0.784,0,1.466,0.155,2.048,0.474c0.574,0.313,1.07,0.76,1.493,1.338l5.674,7.085c-2.156,2.529-4.568,4.639-7.252,6.346
		c-2.676,1.706-5.473,3.071-8.385,4.096c-2.917,1.023-5.888,1.744-8.904,2.164c-3.018,0.422-5.949,0.635-8.78,0.635
		c-5.624,0-10.848-0.934-15.678-2.799c-4.833-1.862-9.034-4.619-12.604-8.27c-3.572-3.648-6.38-8.167-8.428-13.551
		c-2.048-5.383-3.075-11.619-3.075-18.708c0-5.515,0.892-10.7,2.68-15.56c1.784-4.855,4.346-9.082,7.679-12.682
		c3.334-3.6,7.406-6.445,12.213-8.548C1002.047,1625.967,1007.468,1624.92,1013.507,1624.92z M1013.906,1638.863
		c-5.674,0-10.115,1.602-13.316,4.805c-3.203,3.203-5.251,7.748-6.143,13.628h36.55c0-2.521-0.341-4.895-1.027-7.128
		c-0.683-2.234-1.733-4.189-3.149-5.872c-1.419-1.679-3.203-3.005-5.355-3.979
		C1019.312,1639.348,1016.791,1638.863,1013.906,1638.863z"/>
	<path fill="#545352" d="M1078.734,1665.332l-26.551-39.155h18.752c1.416,0,2.471,0.202,3.152,0.593
		c0.684,0.393,1.284,1.036,1.808,1.928l16.937,27.023c0.268-0.892,0.594-1.787,0.989-2.676c0.388-0.896,0.876-1.791,1.454-2.684
		l13.628-21.268c0.632-1.001,1.284-1.734,1.97-2.203c0.684-0.473,1.524-0.714,2.521-0.714h17.883l-26.629,38.286l27.73,42.537
		h-18.748c-1.42,0-2.56-0.365-3.428-1.102c-0.869-0.729-1.591-1.575-2.164-2.521l-17.174-28.121
		c-0.473,1.889-1.132,3.463-1.97,4.728l-15.125,23.394c-0.582,0.896-1.288,1.723-2.125,2.482c-0.846,0.76-1.893,1.141-3.157,1.141
		h-17.409L1078.734,1665.332z"/>
	<path fill="#545352" d="M1144.664,1733.395v-107.218h11.898c1.258,0,2.336,0.295,3.227,0.868c0.893,0.582,1.471,1.471,1.73,2.677
		l1.578,7.485c3.258-3.731,7-6.748,11.228-9.061c4.228-2.311,9.177-3.467,14.847-3.467c4.413,0,8.442,0.924,12.092,2.762
		c3.653,1.838,6.803,4.502,9.455,7.996c2.652,3.491,4.701,7.796,6.143,12.915c1.443,5.123,2.164,10.991,2.164,17.607
		c0,6.042-0.814,11.635-2.436,16.777c-1.629,5.149-3.955,9.61-6.973,13.396c-3.025,3.777-6.67,6.732-10.952,8.857
		c-4.281,2.133-9.071,3.195-14.372,3.195c-4.568,0-8.447-0.697-11.619-2.086c-3.181-1.396-6.027-3.324-8.549-5.794v33.089H1144.664z
		 M1182.478,1640.045c-4.041,0-7.501,0.854-10.358,2.561c-2.863,1.706-5.527,4.106-7.994,7.205v36.238
		c2.203,2.73,4.607,4.635,7.207,5.709c2.598,1.078,5.398,1.613,8.393,1.613c2.939,0,5.6-0.551,7.988-1.652
		c2.393-1.102,4.414-2.784,6.066-5.041c1.655-2.258,2.932-5.104,3.823-8.548c0.892-3.437,1.342-7.493,1.342-12.17
		c0-4.724-0.388-8.733-1.147-12.015c-0.761-3.281-1.846-5.945-3.266-7.997c-1.42-2.044-3.142-3.545-5.158-4.491
		C1187.349,1640.519,1185.053,1640.045,1182.478,1640.045z"/>
	<path fill="#545352" d="M1267.158,1624.92c5.093,0,9.781,0.814,14.062,2.439c4.278,1.633,7.967,4.006,11.068,7.133
		c3.1,3.125,5.512,6.957,7.249,11.498c1.729,4.542,2.599,9.73,2.599,15.561c0,1.469-0.07,2.691-0.197,3.66
		c-0.137,0.974-0.369,1.734-0.711,2.285c-0.341,0.555-0.799,0.945-1.376,1.179c-0.582,0.24-1.315,0.356-2.207,0.356h-49.944
		c0.574,8.3,2.809,14.393,6.694,18.278c3.886,3.882,9.036,5.829,15.439,5.829c3.153,0,5.872-0.369,8.155-1.102
		c2.285-0.736,4.282-1.551,5.988-2.443c1.707-0.893,3.203-1.707,4.491-2.443s2.528-1.102,3.739-1.102
		c0.787,0,1.473,0.155,2.047,0.474c0.582,0.313,1.078,0.76,1.497,1.338l5.674,7.085c-2.156,2.529-4.572,4.639-7.249,6.346
		c-2.68,1.706-5.476,3.071-8.388,4.096c-2.913,1.023-5.884,1.744-8.901,2.164c-3.024,0.422-5.949,0.635-8.787,0.635
		c-5.616,0-10.844-0.934-15.676-2.799c-4.832-1.862-9.029-4.619-12.604-8.27c-3.568-3.648-6.376-8.167-8.424-13.551
		c-2.048-5.383-3.071-11.619-3.071-18.708c0-5.515,0.892-10.7,2.676-15.56c1.784-4.855,4.344-9.082,7.679-12.682
		s7.407-6.445,12.213-8.548S1261.12,1624.92,1267.158,1624.92z M1267.555,1638.863c-5.674,0-10.111,1.602-13.314,4.805
		s-5.255,7.748-6.143,13.628h36.548c0-2.521-0.341-4.895-1.023-7.128c-0.683-2.234-1.729-4.189-3.149-5.872
		c-1.42-1.679-3.203-3.005-5.359-3.979C1272.965,1639.348,1270.443,1638.863,1267.555,1638.863z"/>
	<path fill="#545352" d="M1317.968,1707v-80.823h11.421c1.994,0,3.386,0.372,4.178,1.109c0.783,0.733,1.311,1.993,1.574,3.777
		l1.179,9.766c2.89-4.987,6.274-8.928,10.161-11.813c3.89-2.885,8.245-4.336,13.085-4.336c3.987,0,7.291,0.924,9.921,2.762
		l-2.521,14.574c-0.154,0.942-0.5,1.613-1.023,2.009c-0.527,0.388-1.233,0.59-2.129,0.59c-0.787,0-1.865-0.187-3.23-0.551
		c-1.365-0.368-3.177-0.555-5.43-0.555c-4.049,0-7.516,1.112-10.402,3.347c-2.885,2.234-5.328,5.504-7.325,9.809V1707H1317.968z"/>
	<path fill="#545352" d="M1405.957,1602.625c0,1.683-0.342,3.257-1.023,4.727c-0.684,1.475-1.59,2.758-2.715,3.863
		c-1.133,1.102-2.459,1.978-3.983,2.637c-1.521,0.66-3.149,0.985-4.883,0.985c-1.683,0-3.265-0.325-4.763-0.985
		c-1.496-0.659-2.8-1.535-3.9-2.637c-1.102-1.105-1.986-2.389-2.642-3.863c-0.655-1.47-0.981-3.044-0.981-4.727
		c0-1.734,0.326-3.363,0.981-4.883c0.655-1.521,1.54-2.84,2.642-3.941c1.101-1.102,2.404-1.978,3.9-2.637
		c1.498-0.655,3.08-0.984,4.763-0.984c1.733,0,3.362,0.329,4.883,0.984c1.524,0.659,2.851,1.535,3.983,2.637
		c1.125,1.102,2.031,2.42,2.715,3.941C1405.615,1599.262,1405.957,1600.891,1405.957,1602.625z M1403.041,1626.177V1707h-19.453
		v-80.823H1403.041z"/>
	<path fill="#545352" d="M1458.422,1624.92c5.092,0,9.781,0.814,14.062,2.439c4.281,1.633,7.966,4.006,11.068,7.133
		c3.095,3.125,5.512,6.957,7.244,11.498c1.734,4.542,2.599,9.73,2.599,15.561c0,1.469-0.062,2.691-0.194,3.66
		c-0.131,0.974-0.371,1.734-0.713,2.285c-0.342,0.555-0.799,0.945-1.373,1.179c-0.582,0.24-1.318,0.356-2.211,0.356h-49.939
		c0.578,8.3,2.812,14.393,6.697,18.278c3.887,3.882,9.029,5.829,15.439,5.829c3.149,0,5.867-0.369,8.152-1.102
		c2.28-0.736,4.277-1.551,5.984-2.443c1.706-0.893,3.203-1.707,4.49-2.443c1.288-0.736,2.537-1.102,3.746-1.102
		c0.784,0,1.463,0.155,2.049,0.474c0.569,0.313,1.07,0.76,1.488,1.338l5.678,7.085c-2.156,2.529-4.568,4.639-7.252,6.346
		c-2.676,1.706-5.469,3.071-8.385,4.096c-2.916,1.023-5.887,1.744-8.904,2.164c-3.018,0.422-5.941,0.635-8.78,0.635
		c-5.624,0-10.844-0.934-15.684-2.799c-4.825-1.862-9.028-4.619-12.597-8.27c-3.576-3.648-6.383-8.167-8.432-13.551
		c-2.047-5.383-3.071-11.619-3.071-18.708c0-5.515,0.892-10.7,2.677-15.56c1.787-4.855,4.347-9.082,7.682-12.682
		c3.34-3.6,7.404-6.445,12.213-8.548C1446.957,1625.967,1452.379,1624.92,1458.422,1624.92z M1458.817,1638.863
		c-5.67,0-10.114,1.602-13.317,4.805c-3.204,3.203-5.252,7.748-6.144,13.628h36.556c0-2.521-0.341-4.895-1.023-7.128
		c-0.69-2.234-1.737-4.189-3.156-5.872c-1.412-1.679-3.204-3.005-5.353-3.979
		C1464.224,1639.348,1461.703,1638.863,1458.817,1638.863z"/>
	<path fill="#545352" d="M1509.227,1707v-80.823h11.891c2.525,0,4.182,1.183,4.965,3.545l1.342,6.384
		c1.629-1.684,3.347-3.203,5.158-4.568c1.814-1.365,3.73-2.545,5.755-3.545c2.017-1.001,4.185-1.762,6.496-2.285
		c2.308-0.523,4.828-0.787,7.566-0.787c4.405,0,8.322,0.745,11.735,2.242s6.26,3.599,8.548,6.306
		c2.28,2.703,4.018,5.935,5.196,9.688c1.184,3.754,1.776,7.888,1.776,12.406V1707h-19.461v-51.438c0-4.938-1.14-8.754-3.429-11.461
		c-2.279-2.707-5.709-4.057-10.277-4.057c-3.361,0-6.516,0.761-9.455,2.281c-2.939,1.527-5.724,3.599-8.346,6.229V1707H1509.227z"/>
	<path fill="#545352" d="M1655.592,1643.271c-0.582,0.737-1.141,1.315-1.691,1.738c-0.551,0.418-1.357,0.628-2.404,0.628
		c-1.001,0-1.971-0.302-2.916-0.907c-0.947-0.602-2.075-1.283-3.383-2.048c-1.318-0.761-2.877-1.442-4.692-2.048
		c-1.808-0.605-4.057-0.907-6.732-0.907c-3.413,0-6.407,0.62-8.981,1.854c-2.576,1.233-4.717,3.006-6.423,5.313
		c-1.706,2.312-2.979,5.111-3.816,8.393c-0.845,3.281-1.265,6.996-1.265,11.146c0,4.305,0.458,8.14,1.381,11.502
		c0.92,3.359,2.246,6.182,3.979,8.471c1.729,2.28,3.831,4.014,6.298,5.196c2.471,1.183,5.252,1.769,8.354,1.769
		c3.096,0,5.608-0.38,7.521-1.141c1.919-0.76,3.532-1.598,4.844-2.521c1.315-0.915,2.459-1.761,3.429-2.521
		c0.969-0.76,2.062-1.141,3.273-1.141c1.574,0,2.753,0.605,3.544,1.812l5.593,7.085c-2.16,2.529-4.491,4.639-7.012,6.346
		c-2.521,1.706-5.135,3.071-7.842,4.096c-2.703,1.023-5.5,1.744-8.385,2.164c-2.894,0.422-5.756,0.635-8.587,0.635
		c-4.995,0-9.688-0.934-14.101-2.799c-4.414-1.862-8.262-4.581-11.542-8.152c-3.281-3.572-5.88-7.943-7.804-13.117
		c-1.911-5.173-2.869-11.068-2.869-17.684c0-5.934,0.854-11.434,2.56-16.506c1.702-5.065,4.212-9.447,7.524-13.155
		c3.304-3.7,7.402-6.601,12.285-8.703c4.887-2.103,10.502-3.149,16.855-3.149c6.042,0,11.332,0.971,15.877,2.913
		c4.537,1.942,8.625,4.728,12.248,8.35L1655.592,1643.271z"/>
	<path fill="#545352" d="M1707.343,1624.92c5.096,0,9.784,0.814,14.062,2.439c4.281,1.633,7.97,4.006,11.068,7.133
		c3.103,3.125,5.515,6.957,7.249,11.498c1.732,4.542,2.602,9.73,2.602,15.561c0,1.469-0.07,2.691-0.201,3.66
		c-0.133,0.974-0.369,1.734-0.706,2.285c-0.341,0.555-0.808,0.945-1.381,1.179c-0.581,0.24-1.312,0.356-2.202,0.356h-49.945
		c0.574,8.3,2.809,14.393,6.694,18.278c3.886,3.882,9.036,5.829,15.443,5.829c3.149,0,5.864-0.369,8.151-1.102
		c2.281-0.736,4.278-1.551,5.988-2.443c1.703-0.893,3.199-1.707,4.487-2.443s2.532-1.102,3.743-1.102
		c0.787,0,1.465,0.155,2.047,0.474c0.578,0.313,1.078,0.76,1.498,1.338l5.674,7.085c-2.16,2.529-4.573,4.639-7.249,6.346
		c-2.681,1.706-5.476,3.071-8.393,4.096c-2.913,1.023-5.88,1.744-8.9,2.164c-3.021,0.422-5.945,0.635-8.784,0.635
		c-5.619,0-10.844-0.934-15.676-2.799c-4.832-1.862-9.033-4.619-12.604-8.27c-3.567-3.648-6.376-8.167-8.427-13.551
		c-2.049-5.383-3.072-11.619-3.072-18.708c0-5.515,0.893-10.7,2.68-15.56c1.784-4.855,4.344-9.082,7.68-12.682
		c3.334-3.6,7.406-6.445,12.208-8.548C1695.887,1625.967,1701.309,1624.92,1707.343,1624.92z M1707.738,1638.863
		c-5.67,0-10.107,1.602-13.314,4.805c-3.203,3.203-5.251,7.748-6.143,13.628h36.553c0-2.521-0.342-4.895-1.024-7.128
		c-0.683-2.234-1.733-4.189-3.149-5.872c-1.419-1.679-3.207-3.005-5.359-3.979
		C1713.145,1639.348,1710.627,1638.863,1707.738,1638.863z"/>
	<path fill="#545352" d="M1036.985,1827.775c-2.524,0-4.177-1.187-4.964-3.549l-1.578-7.799c-1.676,1.893-3.437,3.6-5.275,5.119
		c-1.838,1.528-3.819,2.839-5.949,3.94c-2.125,1.102-4.409,1.954-6.849,2.56c-2.443,0.605-5.084,0.908-7.919,0.908
		c-4.412,0-8.457-0.92-12.133-2.758c-3.677-1.834-6.841-4.503-9.494-7.997c-2.649-3.495-4.697-7.812-6.144-12.958
		c-1.442-5.143-2.164-11.029-2.164-17.646c0-5.987,0.811-11.554,2.439-16.7c1.629-5.146,3.966-9.609,7.012-13.395
		c3.045-3.777,6.696-6.732,10.95-8.857c4.253-2.126,9.032-3.192,14.334-3.192c4.519,0,8.377,0.726,11.58,2.168
		c3.204,1.442,6.07,3.374,8.587,5.786v-42.691h19.461v117.061H1036.985z M1011.067,1813.516c4.041,0,7.484-0.842,10.319-2.525
		c2.836-1.676,5.516-4.064,8.032-7.167v-36.234c-2.203-2.68-4.607-4.568-7.206-5.674c-2.598-1.101-5.398-1.651-8.393-1.651
		c-2.939,0-5.604,0.551-7.988,1.651c-2.394,1.105-4.416,2.772-6.068,5.003c-1.656,2.234-2.93,5.068-3.82,8.509
		c-0.896,3.44-1.342,7.501-1.342,12.17c0,4.724,0.382,8.733,1.144,12.015c0.76,3.281,1.852,5.957,3.27,8.036
		c1.417,2.071,3.15,3.567,5.203,4.487C1006.262,1813.054,1008.547,1813.516,1011.067,1813.516z"/>
	<path fill="#545352" d="M1103.311,1745.688c5.093,0,9.777,0.814,14.059,2.443c4.282,1.629,7.967,4.003,11.068,7.128
		c3.104,3.127,5.516,6.958,7.253,11.504c1.729,4.537,2.595,9.727,2.595,15.559c0,1.467-0.066,2.691-0.194,3.661
		c-0.136,0.97-0.368,1.729-0.71,2.28c-0.341,0.559-0.803,0.947-1.381,1.188c-0.577,0.232-1.311,0.349-2.202,0.349h-49.944
		c0.574,8.304,2.809,14.396,6.694,18.282c3.886,3.886,9.036,5.824,15.443,5.824c3.148,0,5.867-0.363,8.151-1.102
		c2.281-0.736,4.278-1.551,5.988-2.442c1.707-0.892,3.203-1.706,4.491-2.439c1.284-0.733,2.528-1.105,3.738-1.105
		c0.792,0,1.466,0.155,2.048,0.474c0.578,0.317,1.078,0.76,1.497,1.342l5.67,7.089c-2.152,2.521-4.568,4.635-7.245,6.341
		c-2.676,1.703-5.476,3.068-8.392,4.092c-2.909,1.027-5.88,1.749-8.897,2.168c-3.024,0.423-5.949,0.633-8.787,0.633
		c-5.616,0-10.844-0.932-15.676-2.801c-4.833-1.861-9.029-4.615-12.604-8.269c-3.568-3.646-6.376-8.167-8.424-13.55
		c-2.048-5.38-3.075-11.619-3.075-18.709c0-5.516,0.896-10.696,2.68-15.556s4.344-9.087,7.679-12.687
		c3.335-3.595,7.407-6.445,12.209-8.543C1091.851,1746.744,1097.272,1745.688,1103.311,1745.688z M1103.707,1759.635
		c-5.674,0-10.111,1.598-13.314,4.801c-3.203,3.204-5.251,7.749-6.143,13.629h36.548c0-2.521-0.341-4.895-1.023-7.129
		c-0.683-2.233-1.729-4.188-3.149-5.871c-1.42-1.676-3.203-3.002-5.359-3.979
		C1109.117,1760.119,1106.592,1759.635,1103.707,1759.635z"/>
	<path fill="#545352" d="M1202.094,1762.707c-0.527,0.837-1.078,1.426-1.652,1.768c-0.582,0.342-1.318,0.512-2.211,0.512
		c-0.938,0-1.954-0.264-3.032-0.783c-1.071-0.527-2.323-1.117-3.739-1.775c-1.419-0.656-3.036-1.25-4.848-1.773
		c-1.807-0.523-3.947-0.787-6.422-0.787c-3.832,0-6.85,0.814-9.056,2.443c-2.207,1.629-3.308,3.754-3.308,6.384
		c0,1.729,0.562,3.188,1.693,4.366c1.129,1.188,2.627,2.223,4.488,3.111c1.869,0.899,3.979,1.698,6.344,2.404
		c2.362,0.713,4.779,1.485,7.245,2.326c2.467,0.838,4.887,1.801,7.253,2.875c2.357,1.074,4.475,2.439,6.336,4.095
		c1.862,1.656,3.359,3.638,4.492,5.949c1.128,2.312,1.69,5.093,1.69,8.351c0,3.885-0.706,7.469-2.126,10.75
		c-1.419,3.281-3.49,6.119-6.221,8.509c-2.733,2.39-6.104,4.251-10.121,5.593c-4.019,1.342-8.626,2.008-13.826,2.008
		c-2.789,0-5.504-0.248-8.156-0.744c-2.652-0.504-5.197-1.194-7.641-2.09c-2.443-0.893-4.699-1.943-6.775-3.153
		c-2.074-1.206-3.896-2.517-5.472-3.94l4.487-7.399c0.578-0.892,1.26-1.579,2.051-2.052c0.784-0.469,1.785-0.709,2.994-0.709
		c1.211,0,2.351,0.341,3.422,1.023c1.078,0.686,2.326,1.419,3.746,2.211c1.411,0.783,3.079,1.52,5.002,2.202
		c1.916,0.683,4.344,1.024,7.283,1.024c2.312,0,4.294-0.275,5.949-0.826c1.652-0.555,3.018-1.276,4.096-2.168
		c1.078-0.893,1.861-1.932,2.362-3.111c0.5-1.178,0.749-2.404,0.749-3.66c0-1.893-0.562-3.44-1.691-4.65
		c-1.133-1.206-2.629-2.261-4.491-3.152c-1.861-0.889-3.991-1.691-6.384-2.397c-2.389-0.714-4.832-1.489-7.322-2.327
		c-2.497-0.838-4.94-1.822-7.33-2.955c-2.389-1.129-4.514-2.56-6.375-4.293c-1.869-1.733-3.366-3.859-4.491-6.38
		c-1.132-2.521-1.698-5.569-1.698-9.137c0-3.312,0.659-6.462,1.97-9.456c1.315-2.993,3.246-5.604,5.79-7.834
		c2.549-2.233,5.729-4.021,9.537-5.359c3.801-1.342,8.206-2.009,13.193-2.009c5.562,0,10.635,0.919,15.203,2.758
		c4.568,1.842,8.377,4.255,11.425,7.248L1202.094,1762.707z"/>
	<path fill="#545352" d="M1246.6,1723.396c0,1.684-0.341,3.258-1.023,4.724c-0.683,1.474-1.59,2.761-2.719,3.862
		s-2.455,1.982-3.979,2.638c-1.524,0.659-3.153,0.985-4.883,0.985c-1.684,0-3.27-0.326-4.767-0.985
		c-1.493-0.655-2.796-1.536-3.897-2.638s-1.986-2.389-2.641-3.862c-0.656-1.466-0.985-3.04-0.985-4.724
		c0-1.729,0.329-3.358,0.985-4.887c0.654-1.52,1.539-2.835,2.641-3.939c1.102-1.102,2.404-1.979,3.897-2.638
		c1.497-0.651,3.083-0.985,4.767-0.985c1.729,0,3.358,0.334,4.883,0.985c1.523,0.659,2.85,1.536,3.979,2.638
		c1.129,1.104,2.036,2.42,2.719,3.939C1246.259,1720.038,1246.6,1721.667,1246.6,1723.396z M1243.684,1746.949v80.826h-19.453
		v-80.826H1243.684z"/>
	<path fill="#545352" d="M1293.628,1745.533c3.467,0,6.725,0.35,9.765,1.062c3.049,0.706,5.834,1.746,8.354,3.111h23.238v7.248
		c0,1.206-0.318,2.152-0.946,2.835c-0.629,0.683-1.707,1.155-3.227,1.419l-7.252,1.338c0.527,1.361,0.93,2.812,1.225,4.332
		c0.287,1.524,0.427,3.127,0.427,4.806c0,3.991-0.799,7.604-2.396,10.832c-1.605,3.227-3.809,5.972-6.62,8.229
		c-2.812,2.261-6.139,4.01-10.002,5.239c-3.859,1.237-8.051,1.851-12.565,1.851c-3.048,0-6.011-0.287-8.905-0.861
		c-2.52,1.531-3.777,3.25-3.777,5.158c0,1.637,0.749,2.838,2.242,3.606c1.497,0.769,3.467,1.312,5.91,1.629s5.213,0.474,8.312,0.474
		s6.278,0.131,9.528,0.395c3.258,0.264,6.438,0.729,9.533,1.381c3.099,0.66,5.871,1.699,8.314,3.126
		c2.439,1.419,4.406,3.358,5.902,5.81c1.502,2.451,2.25,5.597,2.25,9.439c0,3.584-0.885,7.066-2.641,10.433
		c-1.758,3.374-4.309,6.376-7.637,9.013c-3.343,2.634-7.423,4.756-12.256,6.361c-4.832,1.605-10.347,2.412-16.544,2.412
		c-6.14,0-11.472-0.59-15.985-1.772c-4.516-1.183-8.262-2.758-11.225-4.728c-2.971-1.971-5.189-4.243-6.662-6.814
		c-1.467-2.571-2.203-5.251-2.203-8.031c0-3.785,1.152-6.962,3.467-9.533c2.312-2.575,5.516-4.623,9.61-6.143
		c-1.997-1.105-3.599-2.576-4.81-4.414c-1.205-1.838-1.807-4.227-1.807-7.167c0-1.21,0.209-2.458,0.629-3.746
		c0.418-1.288,1.062-2.56,1.931-3.816c0.865-1.265,1.954-2.458,3.266-3.583c1.312-1.133,2.862-2.141,4.653-3.033
		c-4.103-2.211-7.314-5.15-9.652-8.826c-2.338-3.678-3.502-7.982-3.502-12.919c0-3.991,0.799-7.605,2.396-10.832
		c1.605-3.227,3.832-5.987,6.701-8.269c2.855-2.288,6.244-4.033,10.162-5.243
		C1284.738,1746.135,1289.005,1745.533,1293.628,1745.533z M1314.974,1831.165c0-1.605-0.47-2.925-1.411-3.94
		c-0.951-1.016-2.234-1.807-3.863-2.373c-1.629-0.562-3.537-0.978-5.717-1.245s-4.486-0.399-6.926-0.399c-2.443,0-4.965,0-7.562,0
		c-2.6,0-5.112-0.295-7.524-0.869c-2.21,1.211-3.979,2.637-5.321,4.289c-1.334,1.66-2.009,3.561-2.009,5.717
		c0,1.416,0.356,2.742,1.067,3.976c0.709,1.233,1.834,2.3,3.385,3.191c1.552,0.892,3.561,1.591,6.027,2.087s5.487,0.748,9.059,0.748
		c3.623,0,6.749-0.283,9.375-0.846c2.625-0.562,4.789-1.338,6.504-2.33c1.701-0.993,2.947-2.172,3.738-3.537
		C1314.578,1834.26,1314.974,1832.774,1314.974,1831.165z M1293.628,1785.391c2.416,0,4.515-0.322,6.298-0.981
		c1.788-0.659,3.273-1.563,4.453-2.723c1.182-1.151,2.078-2.544,2.68-4.173c0.604-1.629,0.903-3.413,0.903-5.355
		c0-3.991-1.194-7.156-3.583-9.494c-2.39-2.339-5.973-3.506-10.751-3.506s-8.362,1.167-10.751,3.506
		c-2.393,2.338-3.587,5.503-3.587,9.494c0,1.889,0.298,3.648,0.903,5.277s1.501,3.033,2.684,4.212
		c1.18,1.183,2.676,2.103,4.487,2.762S1291.262,1785.391,1293.628,1785.391z"/>
	<path fill="#545352" d="M1347.193,1827.775v-80.826h11.891c2.521,0,4.182,1.183,4.965,3.545l1.342,6.379
		c1.629-1.675,3.344-3.203,5.158-4.568s3.73-2.544,5.752-3.545c2.02-1,4.184-1.76,6.496-2.283c2.311-0.524,4.832-0.788,7.566-0.788
		c4.408,0,8.322,0.749,11.738,2.241c3.41,1.498,6.26,3.6,8.545,6.307c2.283,2.707,4.021,5.934,5.2,9.688s1.769,7.896,1.769,12.41
		v51.441h-19.453v-51.441c0-4.937-1.148-8.756-3.429-11.463c-2.284-2.699-5.709-4.057-10.281-4.057c-3.362,0-6.512,0.76-9.451,2.283
		c-2.944,1.524-5.728,3.596-8.354,6.225v58.453H1347.193z"/>
</g>
<g>
	<path fill="#545352" d="M334.906,1433.436v395.914H252.92v-395.914H334.906z"/>
	<path fill="#545352" d="M590.375,1829.35c-7.758,0-13.618-1.059-17.585-3.172c-3.967-2.117-7.274-6.523-9.917-13.225l-5.819-15.075
		c-6.874,5.817-13.487,10.933-19.835,15.339c-6.347,4.413-12.918,8.16-19.702,11.238c-6.791,3.088-14.02,5.38-21.687,6.881
		c-7.671,1.492-16.181,2.249-25.523,2.249c-12.519,0-23.894-1.645-34.115-4.909c-10.229-3.273-18.912-8.098-26.052-14.463
		c-7.144-6.367-12.651-14.283-16.529-23.746c-3.882-9.467-5.817-20.388-5.817-32.771c0-9.727,2.466-19.721,7.403-29.979
		c4.933-10.262,13.488-19.589,25.654-27.993c12.166-8.399,28.562-15.431,49.191-21.094c20.629-5.662,46.634-8.489,78.019-8.489
		v-11.743c0-16.196-3.304-27.896-9.916-35.106c-6.617-7.205-16.002-10.809-28.168-10.809c-9.699,0-17.632,1.059-23.803,3.177
		c-6.174,2.11-11.679,4.499-16.527,7.136c-4.855,2.645-9.569,5.026-14.151,7.145c-4.59,2.117-10.051,3.172-16.397,3.172
		c-5.645,0-10.444-1.365-14.411-4.096c-3.968-2.734-7.102-6.127-9.39-10.184l-14.811-25.655
		c16.567-14.632,34.95-25.519,55.143-32.662c20.187-7.14,41.829-10.708,64.928-10.708c16.569,0,31.511,2.691,44.826,8.066
		c13.311,5.375,24.596,12.868,33.854,22.479c9.255,9.61,16.349,21.023,21.287,34.249c4.936,13.221,7.408,27.683,7.408,43.374
		v171.375H590.375z M496.226,1779.367c10.58,0,19.837-1.854,27.77-5.554c7.934-3.708,15.953-9.695,24.066-17.987v-37.557
		c-16.399,0-29.886,1.07-40.465,3.203c-10.576,2.133-18.953,4.802-25.123,8.005c-6.172,3.204-10.448,6.849-12.826,10.937
		c-2.381,4.096-3.571,8.536-3.571,13.342c0,9.428,2.554,16.048,7.669,19.871C478.858,1777.455,486.348,1779.367,496.226,1779.367z"
		/>
	<path fill="#545352" d="M686.107,1829.35v-395.914h81.986v150.752c10.223-10.053,21.821-18.115,34.778-24.201
		c12.959-6.084,28.167-9.125,45.621-9.125c14.282,0,27.505,3.088,39.671,9.258c12.164,6.178,22.654,15.206,31.472,27.104
		c8.815,11.906,15.736,26.497,20.764,43.774c5.022,17.281,7.536,36.939,7.536,58.977c0,20.631-2.868,39.674-8.599,57.125
		c-5.729,17.453-13.748,32.621-24.064,45.488c-10.316,12.872-22.656,22.924-37.025,30.15c-14.373,7.225-30.281,10.847-47.739,10.847
		c-8.109,0-15.383-0.799-21.817-2.386c-6.438-1.586-12.342-3.835-17.719-6.744c-5.379-2.908-10.312-6.391-14.812-10.443
		c-4.495-4.057-8.859-8.463-13.089-13.225l-2.911,13.756c-1.235,5.639-3.485,9.518-6.746,11.635
		c-3.262,2.113-7.536,3.172-12.826,3.172H686.107z M819.93,1612.482c-5.996,0-11.417,0.574-16.265,1.723
		c-4.852,1.147-9.347,2.772-13.485,4.891c-4.148,2.117-7.981,4.809-11.507,8.066c-3.529,3.266-7.054,7.012-10.58,11.238v116.371
		c6.17,6.872,12.87,11.682,20.103,14.412c7.226,2.737,14.81,4.099,22.744,4.099c7.578,0,14.545-1.497,20.89-4.495
		c6.349-2.998,11.858-7.803,16.533-14.419c4.668-6.608,8.329-15.202,10.974-25.782c2.643-10.58,3.968-23.448,3.968-38.611
		c0-14.455-1.059-26.621-3.175-36.499c-2.115-9.87-5.069-17.851-8.859-23.933c-3.793-6.081-8.331-10.447-13.621-13.093
		C832.36,1613.805,826.451,1612.482,819.93,1612.482z"/>
</g>
<g>
	<path fill="#545352" d="M249.794,1408.057v-270.111h50.014c5.034,0,9.246,1.129,12.633,3.383c3.384,2.26,5.772,5.646,7.165,10.16
		l4.425,14.586c4.515-4.688,9.203-8.986,14.066-12.895c4.859-3.91,10.115-7.291,15.76-10.158c5.641-2.865,11.722-5.123,18.233-6.771
		c6.51-1.648,13.675-2.475,21.487-2.475c16.321,0,29.827,4.208,40.506,12.632s18.794,19.666,24.355,33.732
		c4.511-8.334,10.027-15.455,16.541-21.361c6.512-5.902,13.543-10.681,21.098-14.326s15.54-6.337,23.963-8.074
		c8.421-1.73,16.802-2.603,25.139-2.603c15.452,0,29.17,2.304,41.155,6.899c11.98,4.607,22.009,11.293,30.084,20.059
		c8.076,8.772,14.196,19.538,18.363,32.302c4.169,12.763,6.25,27.222,6.25,43.366v171.654h-80.747v-171.654
		c0-27.958-11.98-41.936-35.943-41.936c-10.942,0-20.02,3.607-27.222,10.812c-7.209,7.206-10.811,17.58-10.811,31.123v171.654
		h-80.749v-171.654c0-15.455-3.038-26.307-9.117-32.558c-6.079-6.252-15.021-9.378-26.83-9.378c-7.293,0-14.192,1.652-20.708,4.949
		c-6.511,3.304-12.631,7.729-18.361,13.287v195.354H249.794z"/>
	<path fill="#545352" d="M773.872,1137.945v171.395c0,13.373,3.037,23.705,9.118,30.996c6.079,7.291,15.02,10.936,26.827,10.936
		c8.86,0,17.15-1.822,24.881-5.468c7.724-3.646,15.236-8.765,22.529-15.366v-192.492h80.749v270.111h-50.014
		c-10.071,0-16.668-4.514-19.794-13.543l-4.949-15.629c-5.212,5.042-10.595,9.595-16.148,13.675
		c-5.562,4.08-11.507,7.555-17.844,10.421c-6.343,2.866-13.155,5.123-20.448,6.771s-15.282,2.479-23.964,2.479
		c-14.759,0-27.832-2.568-39.201-7.688c-11.377-5.119-20.97-12.285-28.788-21.488c-7.811-9.203-13.715-20.055-17.712-32.559
		c-3.993-12.504-5.988-26.221-5.988-41.156v-171.395H773.872z"/>
	<path fill="#545352" d="M1165.631,1197.073c-2.087,3.3-4.297,5.646-6.648,7.027c-2.342,1.396-5.336,2.087-8.981,2.087
		c-3.823,0-7.64-0.822-11.46-2.475c-3.82-1.645-7.947-3.425-12.375-5.336c-4.43-1.912-9.425-3.693-14.979-5.341
		c-5.558-1.648-11.895-2.479-19.011-2.479c-10.254,0-18.107,1.954-23.572,5.864c-5.476,3.909-8.206,9.338-8.206,16.281
		c0,5.033,1.776,9.203,5.336,12.503c3.561,3.296,8.292,6.205,14.198,8.726c5.899,2.518,12.585,4.906,20.055,7.16
		c7.47,2.26,15.109,4.777,22.929,7.555c7.811,2.78,15.45,6.034,22.916,9.766c7.465,3.738,14.152,8.338,20.062,13.806
		c5.895,5.472,10.626,12.116,14.193,19.931c3.553,7.814,5.337,17.191,5.337,28.129c0,13.372-2.436,25.705-7.291,36.99
		c-4.867,11.289-12.116,21.012-21.749,29.172c-9.642,8.168-21.54,14.505-35.688,19.02c-14.156,4.51-30.437,6.771-48.843,6.771
		c-9.207,0-18.406-0.873-27.605-2.606c-9.21-1.737-18.104-4.08-26.705-7.035c-8.595-2.948-16.537-6.47-23.83-10.549
		c-7.295-4.08-13.545-8.466-18.757-13.155l18.757-29.691c2.255-3.475,4.949-6.205,8.072-8.207c3.126-1.992,7.202-2.994,12.244-2.994
		c4.685,0,8.896,1.04,12.635,3.127c3.731,2.082,7.769,4.34,12.108,6.771c4.344,2.436,9.424,4.685,15.241,6.771
		c5.817,2.082,13.155,3.125,22.009,3.125c6.252,0,11.55-0.651,15.89-1.955c4.336-1.303,7.811-3.078,10.421-5.336
		c2.602-2.257,4.51-4.777,5.728-7.555s1.823-5.646,1.823-8.594c0-5.383-1.823-9.812-5.469-13.287
		c-3.646-3.471-8.424-6.469-14.326-8.99c-5.902-2.513-12.635-4.855-20.189-7.031c-7.555-2.168-15.234-4.643-23.049-7.418
		c-7.814-2.781-15.501-6.129-23.057-10.033c-7.551-3.906-14.283-8.854-20.182-14.846c-5.909-5.992-10.681-13.33-14.328-22.01
		c-3.646-8.68-5.471-19.189-5.471-31.522c0-11.456,2.215-22.354,6.642-32.686c4.429-10.331,11.072-19.407,19.929-27.226
		c8.857-7.811,19.965-14.016,33.337-18.623c13.372-4.596,29.002-6.899,46.888-6.899c9.727,0,19.147,0.872,28.265,2.603
		c9.114,1.737,17.665,4.169,25.659,7.295c7.98,3.126,15.275,6.814,21.877,11.068c6.597,4.258,12.414,8.9,17.447,13.935
		L1165.631,1197.073z"/>
	<path fill="#545352" d="M1345.355,1133.776c17.879,0,34.253,2.78,49.099,8.335c14.846,5.557,27.605,13.635,38.294,24.223
		c10.673,10.596,19.011,23.576,24.999,38.945c5.991,15.365,8.989,32.779,8.989,52.225c0,6.081-0.264,11.029-0.783,14.846
		c-0.52,3.824-1.474,6.865-2.861,9.117c-1.396,2.262-3.258,3.82-5.601,4.689c-2.351,0.869-5.345,1.299-8.989,1.299h-155.766
		c2.605,22.584,9.463,38.941,20.577,49.104c11.111,10.156,25.438,15.24,42.979,15.24c9.377,0,17.451-1.128,24.223-3.389
		c6.771-2.254,12.807-4.778,18.104-7.555c5.298-2.773,10.161-5.295,14.59-7.555c4.43-2.254,9.067-3.383,13.935-3.383
		c6.419,0,11.282,2.343,14.587,7.031l23.439,28.912c-8.33,9.557-17.32,17.32-26.953,23.316c-9.643,5.988-19.539,10.677-29.7,14.062
		c-10.157,3.39-20.313,5.732-30.476,7.035c-10.156,1.303-19.841,1.955-29.04,1.955c-18.933,0-36.688-3.088-53.271-9.25
		s-31.088-15.322-43.498-27.478c-12.418-12.154-22.229-27.264-29.437-45.329c-7.205-18.057-10.812-39.068-10.812-63.037
		c0-18.057,3.088-35.159,9.254-51.309c6.158-16.152,15.017-30.305,26.566-42.459c11.549-12.154,25.526-21.795,41.939-28.916
		C1306.146,1137.337,1324.685,1133.776,1345.355,1133.776z M1346.914,1189.519c-15.458,0-27.527,4.39-36.207,13.155
		c-8.688,8.764-14.411,21.4-17.188,37.897h100.803c0-6.423-0.826-12.674-2.475-18.755c-1.652-6.073-4.344-11.503-8.074-16.281
		c-3.738-4.77-8.641-8.633-14.722-11.588C1362.979,1190.992,1355.594,1189.519,1346.914,1189.519z"/>
	<path fill="#545352" d="M1702.724,1408.057c-5.038,0-9.245-1.124-12.632-3.385c-3.385-2.254-5.778-5.644-7.166-10.158
		l-6.248-20.577c-5.383,5.731-11.03,10.94-16.929,15.629c-5.911,4.685-12.29,8.726-19.151,12.112
		c-6.86,3.385-14.24,5.992-22.137,7.814c-7.904,1.822-16.455,2.738-25.658,2.738c-14.066,0-27.094-3.127-39.069-9.378
		c-11.983-6.252-22.315-15.28-30.999-27.093c-8.684-11.807-15.501-26.264-20.449-43.367c-4.949-17.104-7.424-36.603-7.424-58.48
		c0-20.139,2.777-38.852,8.338-56.133c5.555-17.277,13.412-32.209,23.572-44.806c10.157-12.589,22.354-22.439,36.596-29.56
		c14.236-7.121,29.955-10.681,47.147-10.681c13.888,0,25.654,2.04,35.296,6.12c9.641,4.088,18.363,9.424,26.178,16.017v-136.747
		h80.749v389.934H1702.724z M1620.936,1350.232c5.902,0,11.239-0.559,16.018-1.691c4.777-1.128,9.156-2.737,13.154-4.82
		c3.994-2.082,7.771-4.688,11.332-7.814c3.553-3.126,7.074-6.771,10.549-10.94v-114.606c-6.252-6.774-12.891-11.506-19.926-14.201
		c-7.035-2.691-14.459-4.033-22.27-4.033c-7.469,0-14.326,1.473-20.582,4.429c-6.247,2.955-11.677,7.679-16.276,14.194
		c-4.607,6.512-8.206,14.978-10.812,25.395c-2.606,10.425-3.909,23.014-3.909,37.77c0,14.242,1.043,26.221,3.126,35.947
		c2.087,9.728,4.995,17.584,8.729,23.572c3.734,5.996,8.203,10.289,13.415,12.892
		C1608.695,1348.934,1614.506,1350.232,1620.936,1350.232z"/>
</g>
<g>
	<g>
		<path fill="#0000E5" d="M248.162,816.471c0-40.844,33.112-73.956,73.954-73.956c40.846,0,73.958,33.112,73.958,73.956
			c0,40.846-33.112,73.96-73.958,73.96C281.274,890.431,248.162,857.316,248.162,816.471z"/>
	</g>
	<g>
		<path fill="#545352" d="M506.592,816.471c0-40.844,33.11-73.956,73.954-73.956c40.846,0,73.958,33.112,73.958,73.956
			c0,40.846-33.112,73.96-73.958,73.96C539.702,890.431,506.592,857.316,506.592,816.471z"/>
	</g>
	<g>
		<path fill="#545352" d="M591.58,588.747c0-40.846,33.11-73.956,73.952-73.956c40.847,0,73.958,33.11,73.958,73.956
			c0,40.845-33.111,73.958-73.958,73.958C624.69,662.705,591.58,629.592,591.58,588.747z"/>
	</g>
	<g>
		<circle fill="#31C083" cx="461.781" cy="415.5" r="73.956"/>
	</g>
	<g>
		<circle fill="#12D1D4" cx="927.039" cy="219.372" r="73.956"/>
	</g>
	<g>
		<path fill="#211C1C" d="M853.083,477.606c0-40.844,33.11-73.954,73.954-73.954c40.846,0,73.958,33.11,73.958,73.954
			c0,40.845-33.112,73.96-73.958,73.96C886.193,551.566,853.083,518.451,853.083,477.606z"/>
	</g>
	<g>
		<circle fill="#545352" cx="1163.481" cy="570.224" r="73.958"/>
	</g>
	<g>
		<path fill="#545352" d="M1285.654,398.065c0-40.844,33.108-73.954,73.95-73.954c40.853,0,73.958,33.11,73.958,73.954
			c0,40.846-33.105,73.958-73.958,73.958C1318.763,472.023,1285.654,438.911,1285.654,398.065z"/>
	</g>
	<g>
		<circle fill="#545352" cx="1525.229" cy="816.471" r="73.958"/>
	</g>
	<g>
		<circle fill="#8A00B9" cx="1276.052" cy="816.471" r="73.958"/>
	</g>
</g>
</svg>
