<?xml version="1.0" encoding="utf-8"?>
<!-- Generator: Adobe Illustrator 16.0.0, SVG Export Plug-In . SVG Version: 6.00 Build 0)  -->
<!DOCTYPE svg PUBLIC "-//W3C//DTD SVG 1.1//EN" "http://www.w3.org/Graphics/SVG/1.1/DTD/svg11.dtd">
<svg version="1.1" id="Layer_1" xmlns="http://www.w3.org/2000/svg" xmlns:xlink="http://www.w3.org/1999/xlink" x="0px" y="0px"
	 width="453.5px" height="869.5px" viewBox="0 -257.5 453.5 869.5" enable-background="new 0 -257.5 453.5 869.5"
	 xml:space="preserve">
<g id="Layer_2" display="none">
	<rect x="-648.152" y="-231.331" display="inline" fill="#4C2992" width="2088.305" height="1174.684"/>
</g>
<g id="stars" display="none">
	<circle display="inline" fill="#FFFFFF" cx="379.12" cy="330.533" r="3.46"/>
	<circle display="inline" fill="#FFFFFF" cx="25.478" cy="248.23" r="2.412"/>
	<circle display="inline" fill="#FFFFFF" cx="288.639" cy="321.097" r="0.734"/>
	<polygon display="inline" fill="#FFFFFF" points="314.431,475.639 315.06,478.051 317.471,478.574 315.06,479.204 314.431,481.615 
		313.906,479.204 311.495,478.574 313.906,478.051 	"/>
	<circle display="inline" fill="#FFFFFF" cx="-0.314" cy="97.778" r="4.193"/>
	<circle display="inline" fill="#FFFFFF" cx="68.673" cy="490.423" r="1.887"/>
	<path display="inline" fill="#FFFFFF" d="M90.796,466.832c0,0.314-0.209,0.629-0.629,0.629c-0.315,0-0.629-0.21-0.629-0.629
		c0-0.314,0.21-0.629,0.629-0.629C90.481,466.203,90.796,466.518,90.796,466.832z"/>
	<circle display="inline" fill="#FFFFFF" cx="98.869" cy="457.501" r="1.887"/>
	<circle display="inline" fill="#FFFFFF" cx="38.478" cy="424.58" r="1.573"/>
	<circle display="inline" fill="#FFFFFF" cx="392.121" cy="506.883" r="0.734"/>
	<circle display="inline" fill="#FFFFFF" cx="564.591" cy="504.471" r="1.573"/>
	<circle display="inline" fill="#FFFFFF" cx="474.005" cy="443.347" r="0.629"/>
	<circle display="inline" fill="#FFFFFF" cx="465.407" cy="410.426" r="0.734"/>
	<circle display="inline" fill="#FFFFFF" cx="435.212" cy="462.219" r="0.629"/>
	<circle display="inline" fill="#FFFFFF" cx="521.5" cy="492.729" r="0.629"/>
	<circle display="inline" fill="#FFFFFF" cx="241.144" cy="433.911" r="0.734"/>
	<circle display="inline" fill="#FFFFFF" cx="336.029" cy="398.683" r="1.572"/>
	<circle display="inline" fill="#FFFFFF" cx="267.041" cy="351.712" r="0.629"/>
	<polygon display="inline" fill="#FFFFFF" points="275.638,337.453 276.057,339.446 278.049,339.97 276.057,340.389 
		275.638,342.381 275.218,340.389 273.227,339.97 275.218,339.446 	"/>
	<polygon display="inline" fill="#FFFFFF" points="3.984,316.694 5.137,322.25 10.694,323.509 5.137,324.662 3.984,330.219 
		2.726,324.662 -2.831,323.509 2.726,322.25 	"/>
	<circle display="inline" fill="#FFFFFF" cx="310.132" cy="452.783" r="1.887"/>
	<circle display="inline" fill="#FFFFFF" cx="219.546" cy="518.626" r="0.734"/>
	<circle display="inline" fill="#FFFFFF" cx="284.235" cy="527.957" r="0.734"/>
	<circle display="inline" fill="#FFFFFF" cx="258.443" cy="337.558" r="0.734"/>
	<circle display="inline" fill="#FFFFFF" cx="327.431" cy="325.815" r="1.887"/>
	<circle display="inline" fill="#FFFFFF" cx="236.845" cy="361.043" r="0.629"/>
	<circle display="inline" fill="#FFFFFF" cx="301.535" cy="393.965" r="0.629"/>
	<circle display="inline" fill="#FFFFFF" cx="150.558" cy="441.04" r="1.887"/>
	<circle display="inline" fill="#FFFFFF" cx="81.569" cy="332.841" r="1.887"/>
	<circle display="inline" fill="#FFFFFF" cx="103.167" cy="309.355" r="0.629"/>
	<circle display="inline" fill="#FFFFFF" cx="34.18" cy="403.401" r="0.629"/>
	<circle display="inline" fill="#FFFFFF" cx="116.063" cy="215.309" r="3.46"/>
	<circle display="inline" fill="#FFFFFF" cx="111.765" cy="245.924" r="0.734"/>
	<polygon display="inline" fill="#FFFFFF" points="771.66,101.762 772.604,106.27 777.112,107.214 772.604,108.262 771.66,112.771 
		770.611,108.262 766.104,107.214 770.611,106.27 	"/>
	<circle display="inline" fill="#FFFFFF" cx="715.568" cy="304.636" r="1.573"/>
	<circle display="inline" fill="#FFFFFF" cx="547.396" cy="166.032" r="1.573"/>
	<circle display="inline" fill="#FFFFFF" cx="719.866" cy="147.16" r="1.573"/>
	<circle display="inline" fill="#FFFFFF" cx="676.775" cy="189.517" r="0.629"/>
	<polygon display="inline" fill="#FFFFFF" points="737.062,241.101 737.585,243.093 739.577,243.512 737.585,244.036 
		737.062,246.029 736.642,244.036 734.649,243.512 736.642,243.093 	"/>
	<circle display="inline" fill="#FFFFFF" cx="689.671" cy="455.09" r="4.194"/>
	<path display="inline" fill="#FFFFFF" d="M746.393,177.669c0,0.314-0.21,0.63-0.629,0.63c-0.314,0-0.629-0.21-0.629-0.63
		c0-0.314,0.209-0.629,0.629-0.629C746.078,177.146,746.287,177.355,746.393,177.669z"/>
	<path display="inline" fill="#FFFFFF" d="M625.611,520.932c0,0.314-0.21,0.63-0.63,0.63c-0.314,0-0.629-0.21-0.629-0.63
		c0-0.314,0.21-0.629,0.629-0.629C625.296,520.303,625.611,520.617,625.611,520.932z"/>
	<circle display="inline" fill="#FFFFFF" cx="633.579" cy="483.293" r="0.734"/>
	<circle display="inline" fill="#FFFFFF" cx="202.351" cy="314.073" r="0.734"/>
	<circle display="inline" fill="#FFFFFF" cx="107.466" cy="168.339" r="1.573"/>
	<circle display="inline" fill="#FFFFFF" cx="185.052" cy="90.753" r="0.629"/>
	<circle display="inline" fill="#FFFFFF" cx="254.04" cy="459.807" r="4.194"/>
	<polygon display="inline" fill="#FFFFFF" points="16.88,234.495 18.138,239.948 23.695,241.205 18.138,242.464 16.88,248.021 
		15.622,242.464 10.17,241.205 15.622,239.948 	"/>
	<polygon display="inline" fill="#FFFFFF" points="29.881,115.811 30.825,120.32 35.333,121.367 30.825,122.312 29.881,126.82 
		28.833,122.312 24.324,121.367 28.833,120.32 	"/>
	<circle display="inline" fill="#FFFFFF" cx="249.741" cy="344.687" r="1.887"/>
	<circle display="inline" fill="#FFFFFF" cx="210.948" cy="412.837" r="1.573"/>
	<polygon display="inline" fill="#FFFFFF" points="484.699,218.664 483.336,220.132 484.07,222.019 482.602,220.656 
		480.715,221.494 482.078,219.922 481.239,218.035 482.812,219.398 	"/>
	<circle display="inline" fill="#FFFFFF" cx="344.626" cy="346.994" r="4.194"/>
	<circle display="inline" fill="#FFFFFF" cx="430.913" cy="368.173" r="2.411"/>
	<circle display="inline" fill="#FFFFFF" cx="668.073" cy="382.222" r="0.629"/>
	<circle display="inline" fill="#FFFFFF" cx="702.567" cy="238.899" r="0.629"/>
	<circle display="inline" fill="#FFFFFF" cx="577.592" cy="473.962" r="0.629"/>
	<polygon display="inline" fill="#FFFFFF" points="453.665,359.471 449.891,363.77 452.092,368.906 447.898,365.132 
		442.656,367.439 446.431,363.14 444.229,358.003 448.423,361.778 	"/>
	<circle display="inline" fill="#FFFFFF" cx="724.165" cy="295.306" r="0.629"/>
	<circle display="inline" fill="#FFFFFF" cx="176.454" cy="523.239" r="0.629"/>
	<path display="inline" fill="#FFFFFF" d="M190.189,485.704c0,0.419-0.314,0.733-0.734,0.733s-0.734-0.314-0.734-0.733
		c0-0.42,0.314-0.734,0.734-0.734S190.189,485.284,190.189,485.704z"/>
	<circle display="inline" fill="#FFFFFF" cx="396.419" cy="405.708" r="1.887"/>
	<circle display="inline" fill="#FFFFFF" cx="461.108" cy="429.298" r="0.629"/>
	<circle display="inline" fill="#FFFFFF" cx="361.925" cy="372.891" r="0.629"/>
</g>
<g id="Layer_5" display="none">
	<rect x="-89.014" y="80.478" display="inline" fill="#4C2992" width="977.681" height="688.833"/>
</g>
<g id="Layer_4">
</g>
<g id="Layer_3">
	<g>
		<g>
			<g>
				<g>
					<path fill="#2C2563" d="M449.576,515.061c0,8.598-7.13,15.727-15.728,15.727H15.727C7.129,530.787,0,523.658,0,515.061V228.205
						c0-8.598,7.129-15.728,15.727-15.728h418.122c8.598,0,15.728,7.13,15.728,15.728V515.061z"/>
				</g>
				<g>
					<path fill="#2D3A99" d="M404.598,501.745c0,3.46-2.831,6.291-6.291,6.291H29.252c-3.46,0-6.291-2.831-6.291-6.291V241.52
						c0-3.459,2.831-6.29,6.291-6.29h369.055c3.46,0,6.291,2.831,6.291,6.29V501.745L404.598,501.745z"/>
				</g>
				<circle fill="#2D3A99" cx="427.139" cy="371.633" r="14.888"/>
			</g>
			<g>
				<g>
					<path fill="#2C2563" d="M144.76,194.969c-8.598,0-15.727-7.129-15.727-15.727V-238.88c0-8.598,7.129-15.727,15.727-15.727
						h286.856c8.597,0,15.727,7.129,15.727,15.727v418.122c0,8.598-7.13,15.727-15.727,15.727H144.76z"/>
				</g>
				<g>
					<path fill="#2D3A99" d="M158.075,149.99c-3.46,0-6.291-2.83-6.291-6.29v-369.055c0-3.46,2.831-6.291,6.291-6.291h260.121
						c3.459,0,6.29,2.831,6.29,6.291V143.7c0,3.46-2.831,6.29-6.29,6.29H158.075z"/>
				</g>
				<circle fill="#2D3A99" cx="288.188" cy="172.532" r="14.888"/>
			</g>
		</g>
		
			<line fill="none" stroke="#FFFFFF" stroke-width="11" stroke-linecap="round" stroke-linejoin="round" stroke-miterlimit="10" x1="379.391" y1="-89.645" x2="226.761" y2="-22.606"/>
		<g>
			<circle fill="#FFFFFF" cx="255.516" cy="-156.147" r="13.63"/>
			<circle fill="#FFFFFF" cx="328.803" cy="-156.147" r="13.63"/>
		</g>
		<g>
			<g>
				<ellipse fill="#FFFFFF" cx="184.537" cy="312.889" rx="13.63" ry="13.621"/>
				<ellipse fill="#FFFFFF" cx="257.824" cy="312.889" rx="13.63" ry="13.621"/>
			</g>
			<g>
				<path fill="#FFFFFF" d="M217.25,441.954c-25.998-0.404-43.118-12.1-53.134-22.112c-11.152-11.078-15.801-22.37-16.001-22.897
					c-1.213-2.955,0.202-6.288,3.157-7.501c2.954-1.212,6.288,0.203,7.5,3.158l0,0c0.605,1.582,16.39,38.423,61.07,37.754
					c44.68-0.667,56.991-37.177,57.102-37.489c0.99-3.025,4.266-4.652,7.292-3.662c3.025,0.992,4.652,4.268,3.66,7.293
					c-0.11,0.418-3.848,11.475-13.982,22.642c-9.387,10.235-26.354,22.449-53.938,22.858
					C219.033,441.983,218.089,441.968,217.25,441.954z"/>
			</g>
		</g>
		<g>
			<g>
				<path fill="#FFFFFF" d="M42.152-134.67c0.105,11.323,7.968,20.759,18.348,23.17c2.621,0.63,5.137-1.362,5.137-4.089v-0.104
					c0-1.992-1.362-3.67-3.354-4.089c-6.71-1.468-11.638-7.549-11.743-14.679c0-8.388,6.605-15.202,14.783-15.308
					c3.984,0,7.654,1.469,10.38,4.194l-4.718,4.823c-0.21,0.104-0.419,0.419-0.419,0.733c0,0.42,0.314,0.839,0.839,0.839h15.621
					c0.42,0,0.839-0.419,0.839-0.839v-16.041c0-0.314-0.21-0.629-0.524-0.734c-0.314-0.104-0.629,0-0.838,0.21l-4.719,4.928
					c-4.299-4.299-10.17-6.71-16.251-6.71c0,0,0,0-0.104,0l0,0l0,0l0,0l0,0l0,0l0,0C52.531-158.26,42.152-147.671,42.152-134.67z"/>
			</g>
		</g>
	</g>
</g>
</svg>
